<!-- This is the NK favicon, exported from the NeokudilongaLogoAbbr SVG. Replace this file with your preferred size if needed. -->
<svg version="1.0" xmlns="http://www.w3.org/2000/svg" width="64" height="64" viewBox="0 0 225 225" preserveAspectRatio="xMidYMid meet">
  <g transform="translate(0,225) scale(0.1,-0.1)" fill="#0ea5e9" stroke="none">
    <path d="M145 1707 c-9 -21 -63 -1201 -56 -1208 3 -4 64 -8 136 -10 l130 -4 0 298 c0 163 4 297 8 297 5 0 52 -42 106 -92 87 -84 340 -324 498 -472 l62 -58 5 34 c3 18 10 152 16 298 6 146 13 301 15 345 17 292 26 517 22 521 -9 9 -111 34 -139 34 -15 0 -50 -5 -78 -11 l-50 -11 0 -284 c0 -280 0 -285 -19 -272 -11 8 -84 75 -163 149 -78 73 -183 172 -232 219 -50 47 -128 121 -173 164 -62 60 -84 75 -88 63z m852 -105 c10 -6 8 -101 -12 -453 -14 -244 -26 -449 -28 -456 -1 -7 -154 138 -340 322 -186 184 -340 335 -341 335 -2 0 -7 -170 -11 -377 -5 -264 -11 -380 -19 -385 -6 -4 -21 -8 -33 -8 l-23 0 0 183 c0 100 5 297 11 437 14 323 12 320 119 217 42 -40 145 -137 230 -217 85 -80 192 -181 238 -225 46 -44 87 -81 91 -83 13 -4 21 147 21 379 0 119 3 244 6 278 l7 61 36 0 c20 0 42 -4 48 -8z"/>
    <path d="M1285 1080 l0 -620 152 0 152 0 -4 48 c-8 93 -13 418 -7 467 l7 50 24 -40 c13 -22 35 -60 49 -85 14 -25 68 -119 120 -210 53 -91 106 -184 119 -207 14 -24 29 -40 36 -37 15 7 205 227 212 246 3 7 -55 99 -130 203 -74 104 -135 193 -135 198 0 5 59 87 131 183 72 95 129 178 127 183 -5 16 -199 241 -207 241 -5 0 -30 -37 -57 -82 -67 -115 -275 -451 -286 -463 -6 -6 -9 95 -6 265 l3 275 -150 3 -150 2 0 -620z"/>
  </g>
</svg>
