<svg xmlns="http://www.w3.org/2000/svg" viewBox="0 0 448 512"><!--!Font Awesome Free 6.5.2 by @fontawesome - https://fontawesome.com License - https://fontawesome.com/license/free Copyright 2024 Fonticons, Inc.--><path d="M380.9 97.1C339.4 55.6 283.8 32 224 32S108.6 55.6 67.1 97.1 32 190.2 32 250.2c0 50.5 16.4 95.6 47.9 130.7L32 480l118.7-31c29.9 16.6 63.1 25.3 93.3 25.3 59.8 0 115.4-23.6 156.9-65.1S416 310.2 416 250.2s-23.6-115.4-65.1-156.9zM224 416c-26.7 0-52.7-7.2-75.5-21.1L112 400l-20-74.5c-20.7-37.8-31.5-80.6-31.5-125.7C60.5 132.5 132.5 60.5 224 60.5s163.5 72 163.5 163.5c0 91.5-72 163.5-163.5 163.5zm50.2-148.7c-2.9-1.5-17.2-8.5-19.9-9.5-2.7-1.1-4.7-1.6-6.7 1.6-2 3.2-7.7 9.5-9.4 11.4-1.7 1.9-3.4 2.1-6.3 .6-3.7-1.9-15.7-5.8-29.9-18.5-11.1-9.9-18.5-22.1-20.7-25.8-2.2-3.7-.2-5.7 1.4-7.3 1.4-1.4 3.2-3.7 4.7-5.5 1.5-1.9 2-3.2 3-5.2 1-2 0-3.7-.9-5.5-1.8-1.9-17.2-41.5-23.6-56.7-6.4-15.2-12.9-13.1-17.2-13.4-4.2-.3-9-.2-13.9-.2-4.9 0-12.9 1.9-19.6 9.5-6.7 7.6-25.6 25.1-25.6 61.3 0 36.2 26.2 71.3 30 76.2 3.8 4.9 51.7 78.9 125.4 109.8 73.6 30.9 73.6 20.6 87 18.3 13.4-2.3 42.4-17.2 48.4-34.1 6-16.9 6-15.7 4.2-18.3-1.8-2.6-6.7-4.2-14.2-8.1z" fill="#25D366"/></svg>